<?xml version="1.0" encoding="UTF-8"?>
<!--
  Sliders: the groove, its accent fill and the round handle.
  Made by scripts/plasma-style.py; change that and run it again rather than
  editing this file.
  SPDX-License-Identifier: Apache-2.0
-->
<svg xmlns="http://www.w3.org/2000/svg" width="60" height="60" version="1.1">
 <defs>
  <style id="current-color-scheme" type="text/css">
   .ColorScheme-Text { color:#1b1748; } .ColorScheme-Background { color:#f3f2fa; }
   .ColorScheme-Highlight { color:#6858e2; } .ColorScheme-NegativeText { color:#da4453; }
   .ColorScheme-HighlightedText { color:#ffffff; } .ColorScheme-ViewBackground { color:#ffffff; }
   .ColorScheme-ButtonBackground { color:#e6e4f4; } .ColorScheme-ButtonText { color:#1b1748; }
  </style>
 </defs>
 <g id="horizontal-slider-handle">
  <rect x="6.0" y="6.0" width="18" height="18" fill="#000" opacity="0.004"/>
  <path d="M6.0 15.0 a9 9 0 1 0 18 0 a9 9 0 1 0 -18 0Z" class="ColorScheme-ViewBackground" fill="currentColor" opacity="1"/>
  <path d="M6.0 15.0 a9 9 0 1 0 18 0 a9 9 0 1 0 -18 0Z M7.0 15.0 a8 8 0 1 0 16 0 a8 8 0 1 0 -16 0Z" class="ColorScheme-Text" fill="currentColor" fill-rule="evenodd" opacity="0.22"/>
 </g>
 <g id="horizontal-slider-shadow">
  <rect x="0.0" y="0.0" width="30" height="30" fill="#000" opacity="0.004"/>
  <path d="M5.0 16.0 a10 10 0 1 0 20 0 a10 10 0 1 0 -20 0Z" fill="#000" opacity="0.035"/>
  <path d="M4.0 16.0 a11 11 0 1 0 22 0 a11 11 0 1 0 -22 0Z" fill="#000" opacity="0.035"/>
  <path d="M3.0 16.0 a12 12 0 1 0 24 0 a12 12 0 1 0 -24 0Z" fill="#000" opacity="0.035"/>
  <path d="M2.0 16.0 a13 13 0 1 0 26 0 a13 13 0 1 0 -26 0Z" fill="#000" opacity="0.035"/>
  <path d="M1.0 16.0 a14 14 0 1 0 28 0 a14 14 0 1 0 -28 0Z" fill="#000" opacity="0.035"/>
 </g>
 <g id="horizontal-slider-hover">
  <rect x="6.0" y="6.0" width="18" height="18" fill="#000" opacity="0.004"/>
  <path d="M6.0 15.0 a9 9 0 1 0 18 0 a9 9 0 1 0 -18 0Z" class="ColorScheme-Highlight" fill="currentColor" opacity="0.18"/>
 </g>
 <g id="horizontal-slider-focus">
  <rect x="3.0" y="3.0" width="24" height="24" fill="#000" opacity="0.004"/>
  <path d="M3.0 15.0 a12 12 0 1 0 24 0 a12 12 0 1 0 -24 0Z M5.0 15.0 a10 10 0 1 0 20 0 a10 10 0 1 0 -20 0Z" class="ColorScheme-Highlight" fill="currentColor" fill-rule="evenodd" opacity="0.55"/>
 </g>
 <g id="vertical-slider-handle">
  <rect x="6.0" y="36.0" width="18" height="18" fill="#000" opacity="0.004"/>
  <path d="M6.0 45.0 a9 9 0 1 0 18 0 a9 9 0 1 0 -18 0Z" class="ColorScheme-ViewBackground" fill="currentColor" opacity="1"/>
  <path d="M6.0 45.0 a9 9 0 1 0 18 0 a9 9 0 1 0 -18 0Z M7.0 45.0 a8 8 0 1 0 16 0 a8 8 0 1 0 -16 0Z" class="ColorScheme-Text" fill="currentColor" fill-rule="evenodd" opacity="0.22"/>
 </g>
 <g id="vertical-slider-shadow">
  <rect x="0.0" y="30.0" width="30" height="30" fill="#000" opacity="0.004"/>
  <path d="M5.0 46.0 a10 10 0 1 0 20 0 a10 10 0 1 0 -20 0Z" fill="#000" opacity="0.035"/>
  <path d="M4.0 46.0 a11 11 0 1 0 22 0 a11 11 0 1 0 -22 0Z" fill="#000" opacity="0.035"/>
  <path d="M3.0 46.0 a12 12 0 1 0 24 0 a12 12 0 1 0 -24 0Z" fill="#000" opacity="0.035"/>
  <path d="M2.0 46.0 a13 13 0 1 0 26 0 a13 13 0 1 0 -26 0Z" fill="#000" opacity="0.035"/>
  <path d="M1.0 46.0 a14 14 0 1 0 28 0 a14 14 0 1 0 -28 0Z" fill="#000" opacity="0.035"/>
 </g>
 <g id="vertical-slider-hover">
  <rect x="6.0" y="36.0" width="18" height="18" fill="#000" opacity="0.004"/>
  <path d="M6.0 45.0 a9 9 0 1 0 18 0 a9 9 0 1 0 -18 0Z" class="ColorScheme-Highlight" fill="currentColor" opacity="0.18"/>
 </g>
 <g id="vertical-slider-focus">
  <rect x="3.0" y="33.0" width="24" height="24" fill="#000" opacity="0.004"/>
  <path d="M3.0 45.0 a12 12 0 1 0 24 0 a12 12 0 1 0 -24 0Z M5.0 45.0 a10 10 0 1 0 20 0 a10 10 0 1 0 -20 0Z" class="ColorScheme-Highlight" fill="currentColor" fill-rule="evenodd" opacity="0.55"/>
 </g>
 <rect id="hint-handle-size" x="30" y="0" width="18" height="18" fill="#000" opacity="0.004"/>
 <g id="groove-topleft">
  <rect x="0" y="0" width="3" height="3" fill="#000" opacity="0.004"/>
  <path d="M0 3 V3 A3 3 0 0 1 3 0 H3 V3 Z" class="ColorScheme-Text" fill="currentColor" opacity="0.16"/>
 </g>
 <g id="groove-top">
  <rect x="3" y="0" width="3" height="3" fill="#000" opacity="0.004"/>
  <path d="M3 0 H6 V3 H3 Z" class="ColorScheme-Text" fill="currentColor" opacity="0.16"/>
 </g>
 <g id="groove-topright">
  <rect x="6" y="0" width="3" height="3" fill="#000" opacity="0.004"/>
  <path d="M6 0 H6 A3 3 0 0 1 9 3 V3 H6 Z" class="ColorScheme-Text" fill="currentColor" opacity="0.16"/>
 </g>
 <g id="groove-left">
  <rect x="0" y="3" width="3" height="3" fill="#000" opacity="0.004"/>
  <path d="M0 3 H3 V6 H0 Z" class="ColorScheme-Text" fill="currentColor" opacity="0.16"/>
 </g>
 <g id="groove-center">
  <rect x="3" y="3" width="3" height="3" fill="#000" opacity="0.004"/>
  <path d="M3 3 H6 V6 H3 Z" class="ColorScheme-Text" fill="currentColor" opacity="0.16"/>
 </g>
 <g id="groove-right">
  <rect x="6" y="3" width="3" height="3" fill="#000" opacity="0.004"/>
  <path d="M6 3 H9 V6 H6 Z" class="ColorScheme-Text" fill="currentColor" opacity="0.16"/>
 </g>
 <g id="groove-bottomleft">
  <rect x="0" y="6" width="3" height="3" fill="#000" opacity="0.004"/>
  <path d="M0 6 V6 A3 3 0 0 0 3 9 H3 V6 Z" class="ColorScheme-Text" fill="currentColor" opacity="0.16"/>
 </g>
 <g id="groove-bottom">
  <rect x="3" y="6" width="3" height="3" fill="#000" opacity="0.004"/>
  <path d="M3 6 H6 V9 H3 Z" class="ColorScheme-Text" fill="currentColor" opacity="0.16"/>
 </g>
 <g id="groove-bottomright">
  <rect x="6" y="6" width="3" height="3" fill="#000" opacity="0.004"/>
  <path d="M6 6 V9 H6 A3 3 0 0 0 9 6 V6 Z" class="ColorScheme-Text" fill="currentColor" opacity="0.16"/>
 </g>
 <g id="groove-highlight-topleft">
  <rect x="0" y="0" width="3" height="3" fill="#000" opacity="0.004"/>
  <path d="M0 3 V3 A3 3 0 0 1 3 0 H3 V3 Z" class="ColorScheme-Highlight" fill="currentColor" opacity="1"/>
 </g>
 <g id="groove-highlight-top">
  <rect x="3" y="0" width="3" height="3" fill="#000" opacity="0.004"/>
  <path d="M3 0 H6 V3 H3 Z" class="ColorScheme-Highlight" fill="currentColor" opacity="1"/>
 </g>
 <g id="groove-highlight-topright">
  <rect x="6" y="0" width="3" height="3" fill="#000" opacity="0.004"/>
  <path d="M6 0 H6 A3 3 0 0 1 9 3 V3 H6 Z" class="ColorScheme-Highlight" fill="currentColor" opacity="1"/>
 </g>
 <g id="groove-highlight-left">
  <rect x="0" y="3" width="3" height="3" fill="#000" opacity="0.004"/>
  <path d="M0 3 H3 V6 H0 Z" class="ColorScheme-Highlight" fill="currentColor" opacity="1"/>
 </g>
 <g id="groove-highlight-center">
  <rect x="3" y="3" width="3" height="3" fill="#000" opacity="0.004"/>
  <path d="M3 3 H6 V6 H3 Z" class="ColorScheme-Highlight" fill="currentColor" opacity="1"/>
 </g>
 <g id="groove-highlight-right">
  <rect x="6" y="3" width="3" height="3" fill="#000" opacity="0.004"/>
  <path d="M6 3 H9 V6 H6 Z" class="ColorScheme-Highlight" fill="currentColor" opacity="1"/>
 </g>
 <g id="groove-highlight-bottomleft">
  <rect x="0" y="6" width="3" height="3" fill="#000" opacity="0.004"/>
  <path d="M0 6 V6 A3 3 0 0 0 3 9 H3 V6 Z" class="ColorScheme-Highlight" fill="currentColor" opacity="1"/>
 </g>
 <g id="groove-highlight-bottom">
  <rect x="3" y="6" width="3" height="3" fill="#000" opacity="0.004"/>
  <path d="M3 6 H6 V9 H3 Z" class="ColorScheme-Highlight" fill="currentColor" opacity="1"/>
 </g>
 <g id="groove-highlight-bottomright">
  <rect x="6" y="6" width="3" height="3" fill="#000" opacity="0.004"/>
  <path d="M6 6 V9 H6 A3 3 0 0 0 9 6 V6 Z" class="ColorScheme-Highlight" fill="currentColor" opacity="1"/>
 </g>
</svg>
