<svg xmlns="http://www.w3.org/2000/svg" width="1348" height="512" viewBox="0 0 1348 512">
  <title>Atlas — lockup, dark backgrounds</title>
  <defs>
    <linearGradient id="grad-leg-left" gradientUnits="userSpaceOnUse" x1="220" y1="168" x2="340" y2="872"><stop offset="0" stop-color="#C3B8FF"></stop><stop offset="1" stop-color="#9C8CF8"></stop></linearGradient>
    <linearGradient id="grad-leg-right" gradientUnits="userSpaceOnUse" x1="600" y1="168" x2="660" y2="872"><stop offset="0" stop-color="#251B72"></stop><stop offset=".3" stop-color="#7262EA"></stop><stop offset="1" stop-color="#6252DD"></stop></linearGradient>
    <linearGradient id="grad-crossbar" gradientUnits="userSpaceOnUse" x1="434.7" y1="572" x2="644.5" y2="707"><stop offset="0" stop-color="#8A7AF4"></stop><stop offset="1" stop-color="#7A69EE"></stop></linearGradient>
    <linearGradient id="grad-shadow-apex" gradientUnits="userSpaceOnUse" x1="546" y1="300" x2="601.5" y2="322.7"><stop offset="0" stop-color="#1A2A80" stop-opacity=".45"></stop><stop offset="1" stop-color="#1A2A80" stop-opacity="0"></stop></linearGradient>
    <linearGradient id="grad-shadow-crossbar" gradientUnits="userSpaceOnUse" x1="576.2" y1="656.2" x2="616.9" y2="639.5"><stop offset="0" stop-color="#1A2A80" stop-opacity="0"></stop><stop offset="1" stop-color="#1A2A80" stop-opacity=".42"></stop></linearGradient>
    <linearGradient id="grad-highlight" gradientUnits="userSpaceOnUse" x1="360" y1="0" x2="900" y2="0"><stop offset="0" stop-color="#FFE6F7" stop-opacity=".8"></stop><stop offset="1" stop-color="#FFE6F7" stop-opacity=".35"></stop></linearGradient>
  </defs>
  <g id="symbol" transform="scale(.5)">
  <g id="atlas-mark">
    <g id="crossbar" data-pivot="407 640">
      <path id="crossbar-face" fill="url(#grad-crossbar)" d="M346.7 572L677.3 572L732.5 707L291.5 707Z"></path>
      <path id="crossbar-shadow" fill="url(#grad-shadow-crossbar)" d="M545.3 572L591.3 572L646.5 707L600.5 707Z"></path>
      <path id="crossbar-highlight" fill="url(#grad-highlight)" d="M430.7 572.5L593.3 572.5L593.3 574.5L430.7 574.5Z"></path>
    </g>
    <g id="leg-right" data-pivot="512 168">
      <path id="leg-right-face" fill="url(#grad-leg-right)" d="M445.3 191.9Q424 168 456 168L590 168Q600 168 603.8 177.3L875.9 842.4Q888 872 856 872L744 872Q712 872 699.9 842.4L527.1 420.1Q512 383.1 527.1 346.1L544.7 303.1Z"></path>
    </g>
    <g id="leg-left" data-pivot="224 872">
      <path id="leg-left-face" fill="url(#grad-leg-left)" d="M411.9 197.6Q424 168 456 168L590 168Q600 168 596.2 177.3L324.1 842.4Q312 872 280 872L168 872Q136 872 148.1 842.4Z"></path>
    </g>
    <g id="fold-apex" data-pivot="512 168">
      <path id="fold-apex-shadow" fill="url(#grad-shadow-apex)" d="M592.6 186L607.4 186L630 241.3L542 456.4L527.1 420.1Q512 383.1 527.1 346.1L544.7 303.1Z"></path>
      <path id="fold-apex-highlight" fill="url(#grad-highlight)" d="M456 168.5L586 168.5L586 170.5L456 170.5Z"></path>
    </g>
  </g>
  </g>
  <path id="wordmark" fill="#FFFFFF" d="M610.2 369L566.2 369L654.0 151L688.4 151L775.8 369L730.9 369L715.7 328.4L625.7 328.4L610.2 369ZM639.4 293.0L702.0 293.0L671.0 210.5L639.4 293.0ZM850.6 369L809.9 369L809.9 254.9L774.9 254.9L774.9 219.2L809.9 219.2L809.9 156.9L850.6 156.9L850.6 219.2L885.6 219.2L885.6 254.9L850.6 254.9L850.6 369ZM949.2 369L908.6 369L908.6 144.8L949.2 144.8L949.2 369ZM1047.8 372.1L1047.8 372.1Q1027.3 372.1 1010.9 361.9Q994.4 351.6 985.1 334.0Q975.8 316.3 975.8 294.3L975.8 294.3Q975.8 271.9 985.1 254.3Q994.4 236.6 1010.9 226.4Q1027.3 216.1 1047.8 216.1L1047.8 216.1Q1063.9 216.1 1076.6 222.6L1076.6 222.6Q1085.0 227.0 1091.2 233.5L1091.2 233.5L1091.2 219.2L1131.5 219.2L1131.5 369L1091.2 369L1091.2 354.4Q1085.0 360.9 1076.6 365.3L1076.6 365.3Q1063.9 372.1 1047.8 372.1ZM1055.2 334.6L1055.2 334.6Q1072.3 334.6 1082.8 323.3Q1093.4 311.9 1093.4 294.0L1093.4 294.0Q1093.4 282.2 1088.6 273.0Q1083.8 263.9 1075.2 258.8Q1066.7 253.6 1055.2 253.6L1055.2 253.6Q1044.1 253.6 1035.5 258.8Q1027.0 263.9 1022.2 273.0Q1017.4 282.2 1017.4 294.0L1017.4 294.0Q1017.4 306.0 1022.2 315.2Q1027.0 324.3 1035.5 329.5Q1044.1 334.6 1055.2 334.6ZM1219.0 372.4L1219.0 372.4Q1206.2 372.4 1194.0 369Q1181.7 365.6 1171.5 359.5Q1161.3 353.5 1153.8 344.8L1153.8 344.8L1178.0 320.3Q1185.8 329.0 1196.0 333.3Q1206.2 337.7 1218.7 337.7L1218.7 337.7Q1228.6 337.7 1233.7 334.9Q1238.8 332.1 1238.8 326.5L1238.8 326.5Q1238.8 320.3 1233.4 316.9Q1228.0 313.5 1219.3 311.2Q1210.6 308.8 1201.1 305.9Q1191.7 302.9 1183.0 298.1Q1174.3 293.3 1168.9 284.8Q1163.5 276.3 1163.5 262.6L1163.5 262.6Q1163.5 248.4 1170.4 237.8Q1177.4 227.3 1190.4 221.4Q1203.5 215.5 1221.1 215.5L1221.1 215.5Q1239.7 215.5 1254.8 222.0Q1269.8 228.5 1279.7 241.5L1279.7 241.5L1255.2 266.0Q1248.4 257.7 1239.9 254.0Q1231.4 250.2 1221.4 250.2L1221.4 250.2Q1212.4 250.2 1207.6 253.0Q1202.8 255.8 1202.8 260.8L1202.8 260.8Q1202.8 266.4 1208.3 269.5Q1213.7 272.6 1222.4 274.9Q1231.1 277.2 1240.5 280.2Q1250.0 283.1 1258.5 288.4Q1267.0 293.6 1272.5 302.3Q1277.9 311.0 1277.9 324.7L1277.9 324.7Q1277.9 346.7 1262.1 359.5Q1246.3 372.4 1219.0 372.4Z"></path>
</svg>